<svg width="60" height="60" viewBox="0 0 60 60" fill="none" xmlns="http://www.w3.org/2000/svg">
<rect x="1" y="1" width="58" height="58" rx="3" stroke="#D4AD36" strokeWidth="2"/>
<path d="M39.75 38.7569C41.2958 38.53 42.3941 38.0912 43.2426 37.2426C45 35.4853 45 32.6569 45 27C45 21.3431 45 18.5147 43.2426 16.7574C41.4853 15 38.6569 15 33 15H27C21.3431 15 18.5147 15 16.7574 16.7574C15 18.5147 15 21.3431 15 27C15 32.6569 15 35.4853 16.7574 37.2426C17.9696 38.4549 19.6915 38.8309 22.5 38.9476" stroke="#484848" strokeWidth="1.5" strokeLinecap="round"/>
<path d="M37.5 22.5L22.5 22.5" stroke="#484848" strokeWidth="1.5" strokeLinecap="round" strokeLinejoin="round"/>
<path d="M33.75 33.75C33.75 35.8211 32.0711 37.5 30 37.5C27.9289 37.5 26.25 35.8211 26.25 33.75C26.25 31.6789 27.9289 30 30 30C32.0711 30 33.75 31.6789 33.75 33.75Z" stroke="#484848" strokeWidth="1.5"/>
<path d="M26.25 33.75C26.25 39.8488 28.8333 43.3059 30 45L32.25 40.5L34.875 42L37.5 43.5C36.398 42.4332 35.2587 39.0706 35.2587 39.0706" stroke="#484848" strokeWidth="1.5" strokeLinecap="round" strokeLinejoin="round"/>
</svg>
