<svg width="60" height="60" viewBox="0 0 60 60" fill="none" xmlns="http://www.w3.org/2000/svg">
<rect x="1" y="1" width="58" height="58" rx="3" stroke="#D4AD36" strokeWidth="2"/>
<path d="M26.1013 40.8931L25.9121 41.6188L26.1013 40.8931ZM24.0615 38.4202L23.3468 38.6476L24.0615 38.4202ZM24.5573 39.7272L23.9159 40.1159L24.5573 39.7272ZM35.9341 38.4202L36.6488 38.6476L35.9341 38.4202ZM35.4383 39.7272L36.0797 40.1159L35.4383 39.7272ZM33.8942 40.8931L34.0835 41.6188L33.8942 40.8931ZM35.6143 37.0007L35.8964 36.3058L35.6143 37.0007ZM36.1044 37.713L36.8536 37.6787L36.1044 37.713ZM24.3812 37.0007L24.0991 36.3058L24.3812 37.0007ZM23.8912 37.713L23.1419 37.6787L23.8912 37.713ZM34.5914 41.1137C34.6694 40.7069 34.4028 40.3139 33.996 40.236C33.5892 40.1581 33.1962 40.4247 33.1182 40.8315L34.5914 41.1137ZM33.6886 41.8404L32.952 41.6993V41.6993L33.6886 41.8404ZM26.3068 41.8404L27.0434 41.6993L27.0434 41.6993L26.3068 41.8404ZM26.8772 40.8315C26.7992 40.4247 26.4062 40.1581 25.9994 40.236C25.5926 40.3139 25.326 40.7069 25.404 41.1137L26.8772 40.8315ZM28.2149 44.8639L27.9708 45.5731L28.2149 44.8639ZM26.7832 43.6388L26.1242 43.9968L26.7832 43.6388ZM33.2121 43.6388L33.8712 43.9968V43.9968L33.2121 43.6388ZM31.7805 44.8639L32.0246 45.5731L31.7805 44.8639ZM25.0755 37.6963H34.92V36.1963H25.0755V37.6963ZM32.5539 40.2226H27.4416V41.7226H32.5539V40.2226ZM27.4416 40.2226C26.7087 40.2226 26.4798 40.2167 26.2906 40.1674L25.9121 41.6188C26.3324 41.7285 26.7938 41.7226 27.4416 41.7226V40.2226ZM23.3468 38.6476C23.5529 39.2956 23.69 39.7432 23.9159 40.1159L25.1987 39.3385C25.0878 39.1555 25.0066 38.9171 24.7762 38.1928L23.3468 38.6476ZM26.2906 40.1674C25.8474 40.0518 25.4537 39.7593 25.1987 39.3385L23.9159 40.1159C24.3662 40.8589 25.0783 41.4014 25.9121 41.6188L26.2906 40.1674ZM35.2194 38.1928C34.9889 38.9171 34.9077 39.1555 34.7969 39.3385L36.0797 40.1159C36.3055 39.7432 36.4426 39.2956 36.6488 38.6476L35.2194 38.1928ZM32.5539 41.7226C33.2017 41.7226 33.6631 41.7285 34.0835 41.6188L33.7049 40.1674C33.5157 40.2167 33.2868 40.2226 32.5539 40.2226V41.7226ZM34.7969 39.3385C34.5418 39.7593 34.1482 40.0518 33.7049 40.1674L34.0835 41.6188C34.9172 41.4014 35.6294 40.8589 36.0797 40.1159L34.7969 39.3385ZM34.92 37.6963C35.1163 37.6963 35.2292 37.6966 35.3108 37.7017C35.3907 37.7066 35.3764 37.7135 35.3322 37.6956L35.8964 36.3058C35.7183 36.2334 35.5435 36.2132 35.4032 36.2045C35.2646 36.196 35.0973 36.1963 34.92 36.1963V37.6963ZM36.6488 38.6476C36.7052 38.4703 36.7573 38.3074 36.7925 38.1704C36.828 38.0321 36.8621 37.8638 36.8536 37.6787L35.3552 37.7473C35.3536 37.7125 35.3615 37.7123 35.3397 37.7972C35.3175 37.8834 35.2811 37.9989 35.2194 38.1928L36.6488 38.6476ZM35.3322 37.6956C35.3323 37.6956 35.3331 37.6959 35.3347 37.6973C35.3365 37.6987 35.3392 37.7014 35.3423 37.7058C35.3485 37.7149 35.3543 37.7289 35.3552 37.7473L36.8536 37.6787C36.8264 37.0835 36.4651 36.5366 35.8964 36.3058L35.3322 37.6956ZM25.0755 36.1963C24.8983 36.1963 24.731 36.196 24.5923 36.2045C24.452 36.2132 24.2773 36.2334 24.0991 36.3058L24.6633 37.6956C24.6192 37.7135 24.6048 37.7066 24.6848 37.7017C24.7663 37.6966 24.8792 37.6963 25.0755 37.6963V36.1963ZM24.7762 38.1928C24.7145 37.9989 24.678 37.8834 24.6559 37.7972C24.634 37.7123 24.642 37.7125 24.6404 37.7473L23.1419 37.6787C23.1335 37.8638 23.1675 38.0321 23.203 38.1704C23.2382 38.3074 23.2904 38.4703 23.3468 38.6476L24.7762 38.1928ZM24.0991 36.3058C23.5304 36.5366 23.1692 37.0835 23.1419 37.6787L24.6404 37.7473C24.6412 37.7289 24.647 37.7149 24.6533 37.7058C24.6563 37.7014 24.6591 37.6987 24.6608 37.6973C24.6625 37.6959 24.6633 37.6956 24.6633 37.6956L24.0991 36.3058ZM33.1182 40.8315L32.952 41.6993L34.4252 41.9815L34.5914 41.1137L33.1182 40.8315ZM27.0434 41.6993L26.8772 40.8315L25.404 41.1137L25.5702 41.9815L27.0434 41.6993ZM29.9977 44.2489C29.0129 44.2489 28.7035 44.2389 28.459 44.1548L27.9708 45.5731C28.5107 45.7589 29.1284 45.7489 29.9977 45.7489V44.2489ZM25.5702 41.9815C25.7418 42.877 25.8511 43.4941 26.1242 43.9968L27.4423 43.2808C27.3079 43.0335 27.2355 42.7017 27.0434 41.6993L25.5702 41.9815ZM28.459 44.1548C28.0355 44.009 27.6705 43.701 27.4423 43.2808L26.1242 43.9968C26.5259 44.7362 27.1815 45.3015 27.9708 45.5731L28.459 44.1548ZM32.952 41.6993C32.7599 42.7017 32.6874 43.0335 32.5531 43.2808L33.8712 43.9968C34.1443 43.4941 34.2536 42.877 34.4252 41.9815L32.952 41.6993ZM29.9977 45.7489C30.867 45.7489 31.4847 45.7589 32.0246 45.5731L31.5364 44.1548C31.2919 44.2389 30.9825 44.2489 29.9977 44.2489V45.7489ZM32.5531 43.2808C32.3248 43.701 31.9599 44.009 31.5364 44.1548L32.0246 45.5731C32.8139 45.3015 33.4695 44.7361 33.8712 43.9968L32.5531 43.2808Z" fill="#484848"/>
<path d="M21.1341 34.5C20.5665 33.2241 20.25 31.8046 20.25 30.3088C20.25 24.7535 24.6152 20.25 30 20.25C35.3848 20.25 39.75 24.7535 39.75 30.3088C39.75 31.8046 39.4335 33.2241 38.8659 34.5" stroke="#484848" strokeWidth="1.5" strokeLinecap="round"/>
<path d="M30 15V16.5" stroke="#484848" strokeWidth="1.5" strokeLinecap="round" strokeLinejoin="round"/>
<path d="M45 30L43.5 30" stroke="#484848" strokeWidth="1.5" strokeLinecap="round" strokeLinejoin="round"/>
<path d="M16.5 30L15 30" stroke="#484848" strokeWidth="1.5" strokeLinecap="round" strokeLinejoin="round"/>
<path d="M40.6055 19.3936L39.5448 20.4542" stroke="#484848" strokeWidth="1.5" strokeLinecap="round" strokeLinejoin="round"/>
<path d="M20.4551 20.4551L19.3944 19.3944" stroke="#484848" strokeWidth="1.5" strokeLinecap="round" strokeLinejoin="round"/>
</svg>
