<svg width="60" height="60" viewBox="0 0 60 60" fill="none" xmlns="http://www.w3.org/2000/svg">
<rect x="1" y="1" width="58" height="58" rx="3" stroke="#D4AD36" strokeWidth="2"/>
<path d="M15 24C15 26.0127 27.1592 31.5 30 31.5C32.8408 31.5 45 26.0127 45 24C45 21.9873 32.8407 16.5 30 16.5C27.1592 16.5 15 21.9873 15 24Z" stroke="#484848" strokeWidth="1.5" strokeLinecap="round" strokeLinejoin="round"/>
<path d="M21 28.5L21.3719 37.0296C21.3768 37.1423 21.3898 37.2549 21.4195 37.3637C21.5648 37.8964 21.8511 38.3845 22.3006 38.7066C25.6374 41.0978 34.3626 41.0978 37.6994 38.7066C38.1489 38.3845 38.4352 37.8964 38.5805 37.3637C38.6102 37.2549 38.6232 37.1423 38.6281 37.0296L39 28.5" stroke="#484848" strokeWidth="1.5" strokeLinecap="round" strokeLinejoin="round"/>
<path d="M43.5 26.25C43.5 25.8358 43.1642 25.5 42.75 25.5C42.3358 25.5 42 25.8358 42 26.25H43.5ZM40.6071 41.6451L41.3368 41.8185L40.6071 41.6451ZM44.8929 41.6451L45.6226 41.4718L45.6226 41.4718L44.8929 41.6451ZM42 26.25V36.7608H43.5V26.25H42ZM41.3368 41.8185C41.5643 40.8611 41.9535 39.9943 42.3589 39.2011C42.7419 38.4516 43.1992 37.6651 43.4476 37.0363L42.0524 36.4853C41.8385 37.0271 41.4721 37.64 41.0231 38.5186C40.5965 39.3535 40.1455 40.3436 39.8774 41.4718L41.3368 41.8185ZM45.6226 41.4718C45.3545 40.3436 44.9035 39.3535 44.4769 38.5186C44.0279 37.64 43.6615 37.0271 43.4476 36.4853L42.0524 37.0363C42.3008 37.6651 42.7581 38.4516 43.1411 39.2011C43.5465 39.9943 43.9357 40.8611 44.1632 41.8185L45.6226 41.4718ZM43.2232 42.75H42.2768V44.25H43.2232V42.75ZM39.8774 41.4718C39.6945 42.2417 39.6349 43.0832 40.2158 43.6658C40.4907 43.9416 40.8384 44.0798 41.172 44.1538C41.5049 44.2276 41.8816 44.25 42.2768 44.25V42.75C41.9239 42.75 41.6731 42.7284 41.4968 42.6893C41.3213 42.6504 41.2781 42.6068 41.278 42.6067C41.2777 42.6064 41.2776 42.6063 41.2777 42.6064C41.2778 42.6065 41.2778 42.6066 41.2778 42.6065C41.2777 42.6064 41.2774 42.6059 41.2768 42.6049C41.2763 42.6039 41.2754 42.6021 41.2742 42.5993C41.2697 42.5886 41.2593 42.5589 41.2537 42.4992C41.2417 42.3708 41.2563 42.1574 41.3368 41.8185L39.8774 41.4718ZM44.1632 41.8185C44.2437 42.1574 44.2583 42.3708 44.2463 42.4992C44.2407 42.5589 44.2303 42.5886 44.2258 42.5993C44.2246 42.6021 44.2237 42.6039 44.2232 42.6049C44.2226 42.6059 44.2223 42.6064 44.2222 42.6065C44.2222 42.6066 44.2222 42.6065 44.2223 42.6064C44.2224 42.6063 44.2223 42.6064 44.222 42.6067C44.2219 42.6068 44.1787 42.6504 44.0032 42.6893C43.8269 42.7284 43.5761 42.75 43.2232 42.75V44.25C43.6184 44.25 43.9951 44.2276 44.328 44.1538C44.6616 44.0798 45.0093 43.9416 45.2842 43.6658C45.8651 43.0832 45.8055 42.2417 45.6226 41.4718L44.1632 41.8185Z" fill="#484848"/>
</svg>
