<svg width="60" height="60" viewBox="0 0 60 60" fill="none" xmlns="http://www.w3.org/2000/svg">
<rect x="1" y="1" width="58" height="58" rx="3" stroke="#D4AD36" strokeWidth="2"/>
<path d="M16.5 25.5H39C40.3978 25.5 41.0967 25.5 41.6481 25.7284C42.3831 26.0328 42.9672 26.6169 43.2716 27.3519C43.5 27.9033 43.5 28.6022 43.5 30C43.5 31.3978 43.5 32.0967 43.2716 32.6481C42.9672 33.3831 42.3831 33.9672 41.6481 34.2716C41.0967 34.5 40.3978 34.5 39 34.5H31.5" stroke="#484848" strokeWidth="1.5" strokeLinecap="round" strokeLinejoin="round"/>
<path d="M21 34.5H16.5" stroke="#484848" strokeWidth="1.5" strokeLinecap="round" strokeLinejoin="round"/>
<path d="M31.5 34.5H34.5C35.8978 34.5 36.5967 34.5 37.148 34.7284C37.8831 35.0328 38.4672 35.6169 38.7716 36.3519C39 36.9033 39 37.6022 39 39C39 40.3978 39 41.0967 38.7716 41.6481C38.4672 42.3831 37.8831 42.9672 37.148 43.2716C36.5967 43.5 35.8978 43.5 34.5 43.5H16.5" stroke="#484848" strokeWidth="1.5" strokeLinecap="round" strokeLinejoin="round"/>
<path d="M16.5 16.5H33C34.3978 16.5 35.0967 16.5 35.648 16.7284C36.3831 17.0328 36.9672 17.6169 37.2716 18.3519C37.5 18.9033 37.5 19.6022 37.5 21C37.5 22.3978 37.5 23.0967 37.2716 23.6481C36.9672 24.3831 36.3831 24.9672 35.648 25.2716C35.0967 25.5 34.3978 25.5 33 25.5H16.5" stroke="#484848" strokeWidth="1.5" strokeLinecap="round" strokeLinejoin="round"/>
<path d="M31.5 25.5L31.5 34.7857C31.5 36.4568 31.5 37.2923 31.0102 37.4705C30.5204 37.6486 29.9673 37.0142 28.8611 35.7454L28.1389 34.917C27.6096 34.31 27.345 34.0064 27 34.0064C26.655 34.0064 26.3904 34.31 25.8611 34.917L25.1389 35.7454C24.0327 37.0142 23.4796 37.6486 22.9898 37.4705C22.5 37.2923 22.5 36.4568 22.5 34.7857L22.5 25.5" stroke="#484848" strokeWidth="1.5" strokeLinecap="round" strokeLinejoin="round"/>
</svg>
