<svg width="49" height="49" viewBox="0 0 49 49" fill="none" xmlns="http://www.w3.org/2000/svg">
<circle cx="24.5" cy="24.5" r="24.5" fill="#FFE4A5"/>
<path d="M25.1747 22.7762C25.0664 22.7653 24.9364 22.7653 24.8172 22.7762C22.2389 22.6895 20.1914 20.577 20.1914 17.977C20.1914 15.3228 22.3364 13.167 25.0014 13.167C27.6556 13.167 29.8114 15.3228 29.8114 17.977C29.8006 20.577 27.7531 22.6895 25.1747 22.7762Z" stroke="#292D32" strokeWidth="2" strokeLinecap="round" strokeLinejoin="round"/>
<path d="M19.7553 26.773C17.1336 28.528 17.1336 31.388 19.7553 33.1322C22.7345 35.1255 27.6203 35.1255 30.5995 33.1322C33.2211 31.3772 33.2211 28.5172 30.5995 26.773C27.6311 24.7905 22.7453 24.7905 19.7553 26.773Z" stroke="#292D32" strokeWidth="2" strokeLinecap="round" strokeLinejoin="round"/>
</svg>
