<svg width="32" height="32" viewBox="0 0 32 32" fill="none" xmlns="http://www.w3.org/2000/svg">
    <path d="M25.75 24.4003C27.2958 24.1753 28.3941 23.7402 29.2426 22.8989C31 21.1566 31 18.3524 31 12.744C31 7.13553 31 4.33132 29.2426 2.589C27.4853 0.84668 24.6569 0.84668 19 0.84668H13C7.34315 0.84668 4.51472 0.84668 2.75736 2.589C1 4.33132 1 7.13553 1 12.744C1 18.3524 1 21.1566 2.75736 22.8989C3.96962 24.1008 5.69155 24.4736 8.5 24.5893" stroke="#484848" stroke-width="1.5" stroke-linecap="round"/>
    <path d="M23.5 8.28223L8.5 8.28223" stroke="#484848" stroke-width="1.5" stroke-linecap="round" stroke-linejoin="round"/>
    <path d="M19.75 19.4367C19.75 21.49 18.0711 23.1546 16 23.1546C13.9289 23.1546 12.25 21.49 12.25 19.4367C12.25 17.3833 13.9289 15.7188 16 15.7188C18.0711 15.7188 19.75 17.3833 19.75 19.4367Z" stroke="#484848" stroke-width="1.5"/>
    <path d="M12.25 19.4365C12.25 25.4831 14.8333 28.9106 16 30.5902L18.25 26.1287L20.875 27.6159L23.5 29.1031C22.398 28.0454 21.2587 24.7116 21.2587 24.7116" stroke="#484848" stroke-width="1.5" stroke-linecap="round" stroke-linejoin="round"/>
</svg>
