<svg width="37" height="20" viewBox="0 0 37 20" fill="none" xmlns="http://www.w3.org/2000/svg">
    <path fill-rule="evenodd" clip-rule="evenodd" d="M14.9806 16.1749C15.2666 15.8203 15.1755 15.4733 14.6732 14.8777L6.75001 5.50638C6.62362 5.35535 6.62897 5.35856 6.4351 5.37463L5.61675 5.44639C5.27078 5.48281 5.31041 5.46675 5.2515 5.80415L5.17116 6.56252C5.13688 6.74675 5.15724 6.7746 5.29648 6.90099L14.5147 15.4604C14.6732 15.6039 14.6657 15.7143 14.5671 15.8364C14.4665 15.9574 14.3604 15.9863 14.1858 15.8621L3.95007 8.55268C3.79583 8.44021 3.76583 8.42736 3.59445 8.49484L2.86608 8.72835C2.54796 8.85367 2.55545 8.81404 2.58866 9.16001L2.68399 9.97407C2.70648 10.1679 2.70327 10.1637 2.87465 10.2558L13.6502 16.1384C14.3326 16.508 14.6935 16.5262 14.9827 16.1749H14.9806Z" fill="#CFAE78"/>
    <path fill-rule="evenodd" clip-rule="evenodd" d="M16.0312 17.0317C15.3907 17.8168 14.6644 18.3117 13.544 18.3556L1.0889 18.8772C0.919663 18.889 0.86932 18.8644 0.743997 18.7326L0.140949 18.1189C-0.0893444 17.8736 -0.0122228 17.8618 0.191292 17.6401L0.715077 17.0616C0.825403 16.9363 0.952868 16.8421 1.13282 16.8549L13.5869 17.88C14.1664 17.9293 15.1807 17.3562 15.6788 16.7446C16.178 16.133 16.5346 15.0244 16.3708 14.4663L12.8617 2.47389C12.8125 2.29929 12.8799 2.15469 12.9817 2.02187L13.4412 1.39525C13.619 1.14996 13.6126 1.07284 13.8997 1.24958L14.6205 1.71659C14.7769 1.813 14.8123 1.85691 14.8337 2.02401L16.8281 14.3313C17.0092 15.4367 16.6696 16.2487 16.0301 17.0338L16.0312 17.0317Z" fill="#CFAE78"/>
    <path fill-rule="evenodd" clip-rule="evenodd" d="M15.4987 16.5969C14.9192 17.2953 14.3226 17.4817 13.185 17.1882L1.31582 14.3776C1.1091 14.3304 1.10267 14.3454 1.02448 14.1483L0.733128 13.4296C0.656006 13.2464 0.636726 13.0515 0.928074 12.8919L1.53969 12.4924C1.73999 12.3585 1.73999 12.3767 1.96707 12.4602L13.727 16.8165C14.1908 16.9911 14.8314 16.6783 15.1388 16.3034C15.443 15.9275 15.6229 15.2387 15.3562 14.8189L8.72378 4.17608C8.59524 3.96935 8.58025 3.97149 8.67022 3.74977L8.93908 3.07067C9.03655 2.75362 9.2315 2.73541 9.42644 2.77075L10.188 2.91214C10.3958 2.94963 10.383 2.9582 10.4729 3.15208L15.6112 14.2137C16.1253 15.2655 16.0653 15.89 15.4976 16.5969H15.4987Z" fill="#CFAE78"/>
    <path fill-rule="evenodd" clip-rule="evenodd" d="M22.0197 16.1749C22.3099 16.5262 22.6709 16.508 23.3522 16.1384L34.1278 10.2558C34.2991 10.1637 34.2949 10.1679 34.3184 9.97407L34.4137 9.16001C34.447 8.81404 34.4545 8.85367 34.1363 8.72835L33.408 8.49484C33.2366 8.42736 33.2066 8.44021 33.0523 8.55268L22.8166 15.8621C22.642 15.9863 22.536 15.9585 22.4353 15.8364C22.3378 15.7143 22.3303 15.605 22.4878 15.4604L31.7059 6.90099C31.8452 6.77353 31.8655 6.74675 31.8312 6.56252L31.7509 5.80415C31.692 5.46675 31.7316 5.48281 31.3857 5.44639L30.5673 5.37463C30.3734 5.35856 30.3788 5.35535 30.2524 5.50638L22.3282 14.8766C21.8258 15.4722 21.7347 15.8203 22.0207 16.1738L22.0197 16.1749Z" fill="#CFAE78"/>
    <path fill-rule="evenodd" clip-rule="evenodd" d="M20.9701 17.0321C20.3295 16.2469 19.991 15.435 20.1721 14.3296L22.1665 2.02228C22.1879 1.85519 22.2233 1.81127 22.3797 1.71487L23.1005 1.24785C23.3876 1.07219 23.3822 1.14931 23.559 1.39353L24.0185 2.02014C24.1203 2.15296 24.1877 2.29756 24.1385 2.47216L20.6294 14.4646C20.4656 15.0226 20.8222 16.1312 21.3214 16.7429C21.8195 17.3545 22.8338 17.9275 23.4133 17.8783L35.8674 16.8532C36.0484 16.8403 36.1748 16.9346 36.2851 17.0599L36.8089 17.6383C37.0113 17.8601 37.0895 17.8708 36.8592 18.1171L36.2562 18.7309C36.1309 18.8626 36.0805 18.8883 35.9113 18.8755L23.4562 18.3538C22.3357 18.3099 21.6095 17.8151 20.969 17.0299L20.9701 17.0321Z" fill="#CFAE78"/>
    <path fill-rule="evenodd" clip-rule="evenodd" d="M21.5023 16.5975C20.9357 15.8905 20.8746 15.2661 21.3888 14.2142L26.527 3.15263C26.617 2.95875 26.6041 2.95019 26.8119 2.9127L27.5735 2.77131C27.7684 2.73489 27.9634 2.7531 28.0608 3.07122L28.3297 3.75032C28.4197 3.97205 28.4047 3.9699 28.2761 4.17663L21.6437 14.8194C21.377 15.2393 21.5569 15.928 21.8611 16.304C22.1685 16.6789 22.8091 16.9917 23.2729 16.8171L35.0328 12.4608C35.2599 12.3783 35.261 12.3601 35.4602 12.4929L36.0718 12.8924C36.3632 13.052 36.3428 13.247 36.2668 13.4302L35.9754 14.1489C35.8973 14.3449 35.8898 14.331 35.6841 14.3781L23.8149 17.1888C22.6784 17.4822 22.0807 17.2959 21.5012 16.5975H21.5023Z" fill="#CFAE78"/>
    <path d="M19.3022 14.8975H17.6988L17.3335 16.5009C17.3335 16.5009 18.3521 17.721 18.3425 19.0449H18.4325V16.3671C18.2675 16.3339 18.1443 16.1892 18.1443 16.0157C18.1443 15.8197 18.305 15.6612 18.501 15.6612C18.697 15.6612 18.8577 15.8197 18.8577 16.0157C18.8577 16.1892 18.7345 16.3328 18.5696 16.3671V19.0449H18.6596C18.6488 17.721 19.6686 16.5009 19.6686 16.5009L19.3033 14.8975H19.3022Z" fill="#1E477F"/>
    <path d="M19.4919 0.993476C19.4962 0.916354 19.4651 0.840304 19.4115 0.786747L18.6907 0.0787283C18.5857 -0.0262428 18.4154 -0.0262428 18.3104 0.0787283L17.5895 0.786747C17.5338 0.841375 17.5049 0.916354 17.5092 0.993476L18.2033 13.5846C18.2247 13.9649 18.0287 14.3248 17.6988 14.5144V14.7233H19.3012V14.5144C18.9713 14.3248 18.7764 13.9649 18.7967 13.5846L19.4908 0.993476H19.4919Z" fill="#1E477F"/>
</svg>
