<svg width="40" height="12" viewBox="0 0 40 12" fill="none" xmlns="http://www.w3.org/2000/svg">
    <path d="M1.74286 9.77874L1.61015 9.64551L1.479 9.7777L1.61171 9.90937L1.74286 9.77874Z" fill="white"/>
    <path d="M2.06164 9.78017L1.92998 9.64746L1.79883 9.77861L1.93154 9.91132L2.06164 9.78017Z" fill="white"/>
    <path d="M2.14417 10.6491C2.14417 10.608 2.14053 10.5669 2.13376 10.5263C2.12699 10.4857 2.11711 10.4467 2.1041 10.4092C2.09108 10.3717 2.07547 10.3369 2.05674 10.3036C2.038 10.2703 2.01718 10.2411 1.99376 10.2156C1.93287 10.149 1.86522 10.1162 1.79184 10.1162C1.75853 10.1162 1.72626 10.1245 1.69556 10.1412C1.66485 10.1578 1.63675 10.1828 1.61177 10.2156C1.58939 10.2442 1.57066 10.277 1.55452 10.3145C1.53891 10.3514 1.52694 10.392 1.51913 10.4358C1.51601 10.455 1.51497 10.4758 1.51497 10.4987C1.51497 10.5216 1.51757 10.5435 1.52174 10.5653C1.5259 10.5872 1.53162 10.6065 1.53891 10.6242C1.5462 10.6418 1.55504 10.6549 1.56597 10.6642C1.58106 10.6824 1.59928 10.6981 1.6201 10.7121C1.64143 10.7262 1.66485 10.7381 1.69035 10.748C1.71586 10.7579 1.74344 10.7652 1.77258 10.7704C1.80173 10.7756 1.83139 10.7782 1.8621 10.7782H2.00053C1.97763 10.8105 1.95005 10.8375 1.91674 10.8599C1.88343 10.8818 1.84336 10.9 1.79548 10.9135C1.74812 10.927 1.69244 10.9364 1.62842 10.9421C1.56545 10.9479 1.49207 10.9505 1.4088 10.9505L0.759827 10.9494L0.749939 11.091H0.752541C0.761908 11.0925 0.774399 11.0957 0.790012 11.0988C0.805625 11.1019 0.822278 11.1066 0.840493 11.1113C0.858708 11.116 0.878485 11.1217 0.899302 11.1279C0.920119 11.1342 0.940936 11.1409 0.962794 11.1482C0.998704 11.1612 1.02941 11.1748 1.05439 11.1888C1.07937 11.2029 1.09967 11.2164 1.11528 11.2294C1.13089 11.2424 1.14182 11.2544 1.14911 11.2664C1.15639 11.2783 1.15952 11.2882 1.15952 11.2965C1.15952 11.3283 1.14911 11.3559 1.12829 11.3798C1.10747 11.4038 1.08093 11.4246 1.04867 11.4417C1.0164 11.4589 0.980489 11.474 0.940416 11.486C0.900343 11.498 0.861311 11.5073 0.822799 11.5146C0.784287 11.5219 0.748377 11.5271 0.71559 11.5297C0.682803 11.5323 0.657302 11.5344 0.639087 11.5344C0.61879 11.5344 0.596412 11.5344 0.571431 11.5344C0.546451 11.5344 0.52095 11.5328 0.493887 11.5302C0.466825 11.5276 0.439763 11.524 0.4127 11.5182C0.385638 11.5125 0.359096 11.5042 0.333075 11.4933C0.307574 11.4823 0.283114 11.4683 0.260215 11.4516C0.237316 11.435 0.217539 11.4142 0.199845 11.3887C0.160813 11.3304 0.141557 11.2533 0.141557 11.156C0.141557 11.0842 0.153006 11.0004 0.175905 10.9052C0.198804 10.8099 0.232111 10.7079 0.275307 10.5997C0.252929 10.5908 0.232111 10.582 0.211815 10.5737C0.191518 10.5653 0.169139 10.5565 0.1452 10.5466C0.0999224 10.6575 0.0655741 10.7589 0.0421547 10.8511C0.0187354 10.9437 0.00520432 11.0296 0.00104088 11.1092C0.000520453 11.117 0 11.1243 0 11.131V11.1524C0 11.2815 0.0275828 11.3866 0.0832687 11.4672C0.109811 11.512 0.143638 11.5479 0.185793 11.5755C0.227948 11.6031 0.273746 11.6234 0.324227 11.6385C0.374709 11.6536 0.426752 11.6629 0.481397 11.6681C0.536042 11.6733 0.588605 11.6759 0.639087 11.6759C0.678119 11.6759 0.721315 11.6733 0.768674 11.6681C0.816033 11.6629 0.864433 11.6546 0.912833 11.6426C0.961233 11.6307 1.00859 11.615 1.05491 11.5958C1.10123 11.5765 1.14234 11.5531 1.17825 11.525C1.21416 11.4969 1.24331 11.4641 1.26516 11.4261C1.28754 11.3887 1.29847 11.3455 1.29951 11.2971C1.29951 11.2856 1.29795 11.2726 1.29431 11.258C1.29066 11.2435 1.28442 11.2273 1.27453 11.2102C1.26464 11.193 1.25111 11.1742 1.23446 11.1539C1.2178 11.1337 1.19595 11.1128 1.16888 11.0905H1.43378C1.43378 11.0905 1.4343 11.0905 1.43482 11.0905C1.49363 11.0905 1.55088 11.0884 1.60709 11.0842C1.66798 11.079 1.72522 11.0702 1.77883 11.0571C1.83243 11.0441 1.88135 11.027 1.92611 11.0056C1.97087 10.9843 2.00886 10.9567 2.04112 10.9239C2.07339 10.8911 2.09837 10.8521 2.11607 10.8068C2.13428 10.7615 2.14313 10.7095 2.14313 10.6502L2.14417 10.6491ZM1.95629 10.6351C1.93964 10.6351 1.92507 10.6351 1.91258 10.6351H1.87146C1.85689 10.6351 1.84232 10.6346 1.82671 10.6335C1.80953 10.6325 1.79184 10.6299 1.77414 10.6262C1.75645 10.6226 1.7398 10.6179 1.72418 10.6122C1.70857 10.6065 1.69452 10.6002 1.68255 10.5929C1.67006 10.5856 1.66069 10.5778 1.65444 10.5695H1.65549C1.64872 10.5622 1.64404 10.5539 1.64091 10.545C1.63779 10.5357 1.63519 10.5258 1.63363 10.5154C1.63207 10.505 1.63155 10.4946 1.63207 10.4842C1.63259 10.4737 1.63363 10.4639 1.63571 10.454V10.455C1.64091 10.4222 1.65028 10.3931 1.66329 10.3686C1.6763 10.3436 1.69087 10.3233 1.70701 10.3067C1.72262 10.29 1.73875 10.2781 1.75437 10.2697C1.76998 10.2619 1.78299 10.2578 1.79288 10.2578C1.80225 10.2578 1.81213 10.2593 1.8215 10.2625C1.83087 10.2656 1.83972 10.2703 1.84804 10.2755C1.85637 10.2807 1.86366 10.2869 1.87094 10.2932C1.87823 10.2994 1.88447 10.3056 1.88968 10.3114V10.3103C1.90581 10.3275 1.9209 10.3478 1.93444 10.3712C1.94797 10.3946 1.96046 10.4201 1.97087 10.4477C1.98127 10.4753 1.99012 10.505 1.99689 10.5362C2.00365 10.5674 2.00834 10.5992 2.01094 10.6314C1.99116 10.633 1.97295 10.634 1.95681 10.6346L1.95629 10.6351Z" fill="white"/>
    <path d="M5.09128 10.501C5.084 10.4786 5.07671 10.4578 5.06942 10.4375C5.06214 10.4172 5.05485 10.3985 5.04757 10.3808C5.04028 10.3636 5.03403 10.348 5.02779 10.335C5.02154 10.322 5.01686 10.3111 5.01322 10.3027L4.88571 10.3662C4.88936 10.3746 4.89404 10.3855 4.90028 10.3995C4.90653 10.4131 4.91277 10.4282 4.91954 10.4448C4.92631 10.4615 4.93307 10.4781 4.93984 10.4953C4.9466 10.5125 4.95233 10.5286 4.95753 10.5437C4.97054 10.5853 4.98147 10.6244 4.9898 10.6592C4.99812 10.6941 5.00229 10.7264 5.00229 10.7545C5.00229 10.7873 4.9976 10.8138 4.98772 10.8336V10.8325C4.97523 10.8606 4.95389 10.8825 4.9237 10.8986C4.89352 10.9142 4.85969 10.9262 4.8217 10.9335C4.78423 10.9408 4.7452 10.9455 4.7046 10.947C4.66401 10.9486 4.62706 10.9491 4.59375 10.9491H2.90288C2.87165 10.9491 2.84303 10.9418 2.81649 10.9272C2.78994 10.9127 2.76444 10.8898 2.73998 10.8591C2.71552 10.8284 2.69262 10.7888 2.66972 10.7404C2.64735 10.6925 2.62445 10.6348 2.60207 10.5676L2.46728 10.6087C2.47456 10.6327 2.48289 10.6608 2.49278 10.6936C2.50267 10.7264 2.51255 10.7602 2.52192 10.7961C2.53129 10.832 2.54014 10.8684 2.54846 10.9049C2.55627 10.9413 2.56252 10.9756 2.56668 11.0079C2.5672 11.0142 2.56772 11.0199 2.56824 11.0261C2.56824 11.0324 2.56824 11.0381 2.56824 11.0443C2.56824 11.0844 2.562 11.1235 2.54951 11.1614C2.53701 11.1994 2.51932 11.2359 2.49694 11.2713C2.47456 11.3066 2.44802 11.3405 2.41732 11.3733C2.38661 11.406 2.35278 11.4367 2.31687 11.4659C2.28044 11.495 2.24245 11.5221 2.20238 11.5481C2.16231 11.5736 2.12171 11.5976 2.08008 11.6189C2.09101 11.6418 2.10142 11.6621 2.1113 11.6808C2.12119 11.6996 2.1316 11.7204 2.14305 11.7443C2.19093 11.7199 2.23829 11.6923 2.28513 11.6616C2.33197 11.6309 2.3762 11.5981 2.41784 11.5627C2.45947 11.5273 2.4985 11.4898 2.53389 11.4503C2.56928 11.4107 2.60051 11.3691 2.62653 11.3254C2.65255 11.2822 2.67285 11.2369 2.68742 11.1901C2.70199 11.1432 2.70928 11.0948 2.70928 11.0449V10.9975C2.73166 11.0204 2.75247 11.0381 2.77277 11.0506C2.79307 11.0631 2.8118 11.0724 2.8295 11.0782C2.84719 11.0839 2.86228 11.087 2.87529 11.0881C2.87998 11.0881 2.88206 11.0881 2.8857 11.0881C2.88726 11.0881 2.88883 11.0891 2.89039 11.0891H4.63174C4.64475 11.0891 4.66297 11.0891 4.68639 11.0891C4.70981 11.0891 4.73427 11.0881 4.76029 11.087C4.78631 11.086 4.81181 11.0839 4.83627 11.0818C4.86073 11.0792 4.88103 11.0756 4.89664 11.0709C4.94712 11.0574 4.99032 11.0345 5.02623 11.0032C5.06266 10.972 5.09076 10.9345 5.1121 10.8908C5.12875 10.8518 5.13708 10.806 5.13708 10.7534C5.13708 10.7175 5.13292 10.6785 5.12563 10.6368C5.11782 10.5947 5.10637 10.5499 5.09076 10.5015L5.09128 10.501Z" fill="white"/>
    <path d="M4.87714 9.99013L4.74443 9.85742L4.61328 9.98909L4.74599 10.1213L4.87714 9.99013Z" fill="white"/>
    <path d="M4.93262 9.98955L5.06533 10.1223L5.19543 9.99111L5.06377 9.8584L4.93262 9.98955Z" fill="white"/>
    <path d="M6.71112 10.8539C6.70175 10.817 6.69082 10.7826 6.67885 10.7509C6.66688 10.7191 6.65491 10.691 6.64346 10.6655C6.63201 10.6406 6.62108 10.6192 6.61171 10.6015C6.60235 10.5838 6.59454 10.5708 6.58933 10.5625L6.46443 10.6421C6.47432 10.6583 6.48733 10.6817 6.50294 10.7124C6.51856 10.7431 6.53365 10.7785 6.54822 10.8191C6.56279 10.8597 6.57528 10.9044 6.58569 10.9528C6.5961 11.0012 6.60131 11.0517 6.60131 11.1048C6.60131 11.1761 6.58986 11.2401 6.56748 11.2979C6.5451 11.3551 6.51231 11.404 6.46912 11.4446C6.42592 11.4852 6.37284 11.5159 6.30934 11.5373C6.24585 11.5586 6.17299 11.568 6.09128 11.5654C6.03039 11.5638 5.97731 11.556 5.93255 11.5435C5.8878 11.5305 5.84928 11.5138 5.81702 11.493C5.78475 11.4722 5.75821 11.4488 5.73739 11.4217C5.71657 11.3947 5.70044 11.3666 5.68847 11.3374C5.6765 11.3083 5.66817 11.2781 5.66401 11.2479C5.65985 11.2177 5.65725 11.1886 5.65725 11.161C5.65725 11.1162 5.66141 11.0715 5.66974 11.0262C5.67806 10.9814 5.68847 10.9393 5.70044 10.9003C5.71241 10.8612 5.72542 10.8269 5.73895 10.7962C5.75248 10.7655 5.76498 10.742 5.7759 10.7254L5.66089 10.6411C5.64163 10.6728 5.62342 10.7087 5.60572 10.7488C5.58803 10.7889 5.57242 10.8316 5.55889 10.8763C5.54535 10.9211 5.53442 10.9674 5.52662 11.0148C5.51829 11.0626 5.51465 11.1089 5.51465 11.1553C5.51465 11.2427 5.52766 11.3202 5.5542 11.3884C5.58074 11.4561 5.61873 11.5138 5.66817 11.5602C5.71762 11.607 5.77799 11.6429 5.84928 11.6679C5.92006 11.6929 6.00021 11.7064 6.0892 11.7085C6.18496 11.7121 6.27291 11.7002 6.35306 11.6726C6.43321 11.645 6.50242 11.6049 6.56019 11.5518C6.61796 11.4988 6.66324 11.4342 6.6955 11.3582C6.72777 11.2817 6.7439 11.1964 6.7439 11.1011C6.7439 11.0569 6.74078 11.0142 6.73453 10.9726C6.72829 10.9315 6.72048 10.8919 6.71059 10.855L6.71112 10.8539Z" fill="white"/>
    <path d="M6.13502 10.3991L6.00293 10.5312L6.1358 10.6641L6.26789 10.5319L6.13502 10.3991Z" fill="white"/>
    <path d="M9.43249 10.5044C9.41792 10.4617 9.40283 10.4237 9.38773 10.3904C9.37264 10.3571 9.36067 10.3326 9.35286 10.3165L9.22796 10.3831C9.23889 10.4045 9.25086 10.4315 9.26439 10.4638C9.27792 10.4961 9.29041 10.5304 9.30238 10.5673C9.31435 10.6043 9.32424 10.6412 9.33257 10.6792C9.34037 10.7167 9.34454 10.7521 9.34454 10.7854C9.34454 10.8104 9.34141 10.8338 9.33569 10.8551C9.32997 10.8765 9.3206 10.8947 9.30811 10.9108C9.29562 10.927 9.28 10.9389 9.26075 10.9483C9.24149 10.9572 9.21859 10.9618 9.19257 10.9618C9.16239 10.9618 9.13793 10.9566 9.11867 10.9457C9.09942 10.9348 9.0838 10.9207 9.07235 10.903C9.0609 10.8853 9.0531 10.865 9.04893 10.8421C9.04477 10.8192 9.04269 10.7948 9.04269 10.7698C9.04269 10.75 9.04373 10.7282 9.04685 10.7032C9.04997 10.6782 9.05258 10.6543 9.05622 10.6303C9.05986 10.6064 9.06351 10.584 9.06715 10.5632C9.07079 10.5424 9.07391 10.5257 9.076 10.5127V10.5117C9.05258 10.5075 9.0302 10.5033 9.00938 10.4992C8.98804 10.495 8.96514 10.4903 8.93964 10.4856C8.93548 10.5122 8.92976 10.5418 8.92299 10.5757C8.91622 10.6095 8.90738 10.6439 8.89645 10.6787C8.88552 10.7136 8.87303 10.7479 8.85846 10.7812C8.84388 10.8151 8.82671 10.8447 8.80693 10.8708C8.78716 10.8973 8.76478 10.9181 8.73928 10.9343C8.71378 10.9499 8.68515 10.9582 8.65341 10.9582C8.63051 10.9582 8.61177 10.954 8.59668 10.9457C8.58159 10.9374 8.56962 10.9264 8.56129 10.9129C8.55296 10.8994 8.54672 10.8838 8.5436 10.8661C8.53995 10.8484 8.53839 10.8307 8.53839 10.8125C8.53839 10.7906 8.54047 10.7667 8.54464 10.7417C8.5488 10.7167 8.554 10.6917 8.55973 10.6673C8.56545 10.6428 8.57222 10.6194 8.57847 10.597C8.58523 10.5746 8.59096 10.5559 8.59564 10.5398L8.4546 10.5122C8.44836 10.5418 8.44107 10.5736 8.4317 10.6059C8.42234 10.6386 8.41141 10.6709 8.39788 10.7027C8.38435 10.7344 8.36925 10.7651 8.35208 10.7948C8.3349 10.8239 8.31461 10.8499 8.29171 10.8728C8.26881 10.8957 8.24279 10.914 8.21364 10.9275C8.1845 10.941 8.15223 10.9488 8.11736 10.9499H7.29613C7.29613 10.9499 7.29561 10.9499 7.29509 10.9499C7.29509 10.9499 7.29457 10.9499 7.29405 10.9499H7.28624C7.24617 10.9493 7.21234 10.9447 7.18476 10.9358C7.15717 10.927 7.13584 10.9155 7.12126 10.9004C7.10513 10.8848 7.09576 10.8661 7.09264 10.8442C7.08952 10.8224 7.08848 10.7969 7.089 10.7682V10.7287C7.08952 10.711 7.09004 10.6844 7.09056 10.6496C7.09056 10.6147 7.09056 10.5746 7.09056 10.5283C7.09056 10.4981 7.09056 10.4669 7.09056 10.4346C7.09056 10.4019 7.08952 10.3685 7.089 10.3337C7.089 10.2822 7.08848 10.2296 7.08744 10.176C7.08639 10.1224 7.08483 10.0709 7.08275 10.0209C7.08067 9.97146 7.07807 9.92462 7.07442 9.88194C7.07078 9.83875 7.06662 9.80128 7.06089 9.76953L6.9209 9.79451C6.92558 9.82313 6.92975 9.85956 6.93287 9.9038C6.93599 9.94804 6.93911 9.99592 6.9412 10.0464C6.9438 10.0974 6.94536 10.1494 6.9464 10.203C6.94744 10.2567 6.94848 10.3071 6.94848 10.3545C6.949 10.3795 6.94952 10.406 6.95004 10.4346C6.95004 10.4627 6.95004 10.4877 6.95004 10.5101C6.95004 10.5731 6.95004 10.6262 6.94848 10.6694C6.94744 10.7125 6.94692 10.7396 6.9464 10.7495V10.7656C6.9464 10.7792 6.9464 10.7958 6.94744 10.8151C6.94796 10.8343 6.95056 10.8541 6.95525 10.8754C6.95993 10.8968 6.9667 10.9176 6.97658 10.9389C6.98647 10.9603 7.00052 10.9806 7.01926 10.9988C7.04996 11.0295 7.08744 11.0519 7.13219 11.0664C7.17695 11.081 7.23107 11.0883 7.29457 11.0883H8.11372C8.11372 11.0883 8.1158 11.0893 8.11736 11.0893C8.15119 11.0888 8.18242 11.0852 8.21104 11.0784C8.23967 11.0716 8.26673 11.0623 8.29119 11.0503C8.31617 11.0383 8.33907 11.0238 8.36041 11.0066C8.38174 10.9894 8.40204 10.9707 8.42182 10.9493C8.43275 10.9738 8.4468 10.9957 8.46449 11.0139C8.48219 11.0321 8.50144 11.0477 8.52226 11.0607C8.54308 11.0732 8.56493 11.0826 8.58731 11.0888C8.60969 11.0951 8.63155 11.0982 8.65237 11.0982C8.70025 11.0982 8.74708 11.0852 8.79288 11.0581C8.83868 11.0316 8.88136 10.9957 8.92091 10.9499C8.93444 10.9707 8.95109 10.9905 8.96931 11.0082C8.98804 11.0264 9.0073 11.0415 9.02812 11.055C9.04893 11.0685 9.07027 11.0784 9.09213 11.0862C9.11399 11.094 9.13585 11.0977 9.1577 11.0977C9.21287 11.0982 9.26075 11.0909 9.30238 11.0763C9.34402 11.0618 9.37784 11.0399 9.40543 11.0123C9.43301 10.9847 9.45279 10.9509 9.46632 10.9114C9.47985 10.8718 9.48661 10.8281 9.48661 10.7792C9.48661 10.7302 9.48141 10.686 9.46996 10.6376C9.45903 10.5897 9.44602 10.5439 9.43145 10.5013L9.43249 10.5044Z" fill="white"/>
    <path d="M9.98556 9.49173C9.98087 9.49798 9.97411 9.50526 9.96526 9.51515C9.95641 9.52452 9.94653 9.53389 9.93456 9.54273C9.92311 9.55158 9.9101 9.55939 9.89709 9.56563C9.88355 9.57188 9.8695 9.575 9.85545 9.57396C9.83619 9.57344 9.8185 9.57032 9.80237 9.56563C9.78623 9.56043 9.76958 9.5547 9.75189 9.54794C9.73419 9.54013 9.71441 9.53337 9.6936 9.5266C9.67278 9.51983 9.64936 9.51723 9.62438 9.51723C9.6197 9.51723 9.61397 9.51723 9.60669 9.51723C9.59992 9.51723 9.59315 9.51827 9.58743 9.51931C9.56089 9.524 9.53591 9.53545 9.51145 9.55314C9.48699 9.57084 9.46617 9.59374 9.44795 9.62288H9.449C9.44067 9.63641 9.43338 9.65202 9.42714 9.66868C9.42089 9.68533 9.41621 9.69782 9.41309 9.70615L9.51353 9.73737C9.51665 9.72853 9.52081 9.71812 9.52654 9.70615C9.53226 9.69418 9.53903 9.68273 9.54632 9.67128C9.5536 9.65983 9.56245 9.64994 9.57234 9.64109C9.58223 9.63225 9.59263 9.62756 9.60408 9.62652H9.60304C9.6223 9.6234 9.64051 9.62444 9.65769 9.62912C9.67486 9.63381 9.6936 9.64005 9.71337 9.64786L9.72795 9.65306H9.7269C9.74408 9.65931 9.76281 9.66503 9.78363 9.67128C9.80393 9.67752 9.82631 9.68065 9.85025 9.68117C9.88147 9.68221 9.90958 9.677 9.9356 9.66503C9.96162 9.65306 9.984 9.63953 10.0033 9.62444C10.0225 9.60935 10.0386 9.59426 10.0506 9.57916C10.0626 9.56407 10.0699 9.55418 10.073 9.54846C10.0569 9.53857 10.0423 9.52868 10.0293 9.51983C10.0163 9.51099 10.0017 9.5011 9.98504 9.49121L9.98556 9.49173Z" fill="white"/>
    <path d="M9.86073 10.3064C9.85917 10.2658 9.85657 10.2236 9.85449 10.1804C9.85189 10.1372 9.84928 10.0935 9.84564 10.0498C9.842 10.0061 9.83783 9.96289 9.83367 9.92022C9.82951 9.87754 9.8243 9.83643 9.8191 9.79688C9.79412 9.8 9.77122 9.80208 9.7504 9.80364C9.72958 9.8052 9.70669 9.8078 9.68066 9.81197C9.68847 9.86921 9.69419 9.9275 9.69888 9.98579C9.70356 10.0441 9.70721 10.1013 9.71137 10.1565C9.71449 10.1877 9.71657 10.2241 9.71866 10.2658C9.72022 10.3079 9.72178 10.3532 9.72334 10.4021C9.72386 10.4615 9.72438 10.5182 9.7249 10.5723C9.7249 10.6264 9.7249 10.6811 9.72386 10.7357C9.72282 10.7904 9.72126 10.8466 9.71866 10.9038C9.71605 10.9611 9.71241 11.0225 9.70825 11.087L9.84928 11.0953C9.85605 10.9996 9.86021 10.909 9.86281 10.8232C9.86542 10.7373 9.86646 10.6556 9.86646 10.5775C9.86646 10.527 9.86646 10.4797 9.8649 10.4349C9.86385 10.3902 9.86281 10.3475 9.86177 10.3064H9.86073Z" fill="white"/>
    <path d="M12.9316 11.4495L13.0643 11.5822L13.1945 11.4511L13.0623 11.3184L12.9316 11.4495Z" fill="white"/>
    <path d="M12.6123 11.4481L12.745 11.5803L12.8762 11.4491L12.7429 11.3164L12.6123 11.4481Z" fill="white"/>
    <path d="M13.856 10.501C13.8487 10.4786 13.8414 10.4578 13.8341 10.4375C13.8269 10.4172 13.8196 10.3985 13.8123 10.3808C13.805 10.3636 13.7988 10.348 13.7925 10.335C13.7863 10.322 13.7816 10.3111 13.7779 10.3027L13.6504 10.3662C13.6541 10.3746 13.6588 10.3855 13.665 10.3995C13.6712 10.4131 13.678 10.4282 13.6843 10.4448C13.6905 10.4615 13.6978 10.4781 13.7046 10.4953C13.7113 10.5125 13.7176 10.5286 13.7223 10.5437C13.7488 10.628 13.7618 10.6983 13.7618 10.7545C13.7618 10.7873 13.7571 10.8138 13.7472 10.8336V10.8325C13.7358 10.857 13.7217 10.8773 13.704 10.8924C13.6863 10.9075 13.6666 10.92 13.6442 10.9283C13.6218 10.9366 13.5973 10.9423 13.5708 10.9455C13.5443 10.9486 13.5167 10.9501 13.4875 10.9501C13.4808 10.9501 13.474 10.9501 13.4672 10.9501C13.4605 10.9501 13.4537 10.9501 13.4469 10.9501H13.3564C13.3215 10.9501 13.2939 10.9439 13.2736 10.9319C13.2533 10.92 13.2377 10.9044 13.2263 10.8851C13.2154 10.8658 13.2075 10.844 13.2029 10.8195C13.1982 10.7951 13.1945 10.7706 13.1914 10.7456C13.1883 10.7222 13.1857 10.7003 13.1836 10.6806C13.1815 10.6608 13.1789 10.6405 13.1763 10.6207C13.1737 10.6009 13.1701 10.5801 13.1659 10.5583C13.1617 10.5369 13.156 10.513 13.1487 10.4875C13.1248 10.4943 13.1029 10.5005 13.0826 10.5067C13.0623 10.513 13.04 10.5192 13.015 10.526C13.0207 10.5489 13.0259 10.5692 13.0296 10.5869C13.0337 10.6046 13.0368 10.6218 13.0394 10.6374C13.0421 10.653 13.0441 10.6686 13.0452 10.6832C13.0462 10.6977 13.0473 10.7134 13.0478 10.7295C13.0499 10.7768 13.04 10.8148 13.0192 10.844C12.9983 10.8731 12.9692 10.8955 12.9328 10.9106C12.8958 10.9262 12.8531 10.9366 12.8047 10.9418C12.7563 10.947 12.7059 10.9496 12.6528 10.9496H10.9629C10.9317 10.9496 10.9031 10.9423 10.8765 10.9278C10.85 10.9132 10.8245 10.8903 10.8 10.8596C10.7756 10.8289 10.7527 10.7893 10.7298 10.7409C10.7074 10.6931 10.685 10.6353 10.6621 10.5682L10.5273 10.6093C10.5346 10.6332 10.5429 10.6613 10.5528 10.6941C10.5627 10.7269 10.5726 10.7607 10.582 10.7966C10.5913 10.8325 10.6002 10.869 10.6085 10.9054C10.6163 10.9418 10.6226 10.9762 10.6267 11.0084C10.6273 11.0147 10.6278 11.0204 10.6283 11.0267C10.6283 11.0329 10.6283 11.0386 10.6283 11.0449C10.6283 11.0849 10.6221 11.124 10.6096 11.162C10.5971 11.2 10.5794 11.2364 10.557 11.2718C10.5346 11.3072 10.5081 11.341 10.4774 11.3738C10.4467 11.4066 10.4128 11.4373 10.3769 11.4664C10.3405 11.4956 10.3025 11.5226 10.2624 11.5486C10.2224 11.5741 10.1818 11.5981 10.1401 11.6194C10.1511 11.6423 10.1615 11.6626 10.1714 11.6814C10.1813 11.7001 10.1917 11.7209 10.2031 11.7448C10.251 11.7204 10.2983 11.6928 10.3447 11.6621C10.3915 11.6314 10.4357 11.5986 10.4774 11.5632C10.519 11.5278 10.558 11.4904 10.5934 11.4508C10.6288 11.4112 10.66 11.3696 10.6861 11.3259C10.7121 11.2827 10.7324 11.2374 10.747 11.1906C10.7615 11.1437 10.7688 11.0953 10.7688 11.0454V10.998C10.7907 11.0209 10.812 11.0386 10.8323 11.0511C10.8526 11.0636 10.8713 11.073 10.889 11.0787C10.9062 11.0844 10.9218 11.0875 10.9348 11.0886C10.9395 11.0886 10.9416 11.0886 10.9452 11.0886C10.9468 11.0886 10.9484 11.0896 10.9499 11.0896H12.6517C12.6944 11.0896 12.7376 11.0875 12.7818 11.0829C12.8261 11.0782 12.8687 11.0714 12.9099 11.0615C12.951 11.0516 12.989 11.0391 13.0233 11.0235C13.0582 11.0079 13.0868 10.9887 13.1102 10.9663C13.1232 10.9845 13.1383 11.0006 13.155 11.0157C13.1716 11.0308 13.1904 11.0438 13.2101 11.0548C13.2299 11.0657 13.2523 11.0745 13.2762 11.0808C13.2986 11.0865 13.3236 11.0896 13.3501 11.0901C13.3507 11.0901 13.3512 11.0901 13.3517 11.0901H13.4829C13.5099 11.0901 13.538 11.0891 13.5677 11.0875C13.5973 11.086 13.6275 11.0803 13.6588 11.0714C13.7092 11.0579 13.7524 11.035 13.7883 11.0038C13.8243 10.9725 13.8529 10.9351 13.8742 10.8913C13.8909 10.8523 13.8992 10.8065 13.8992 10.7539C13.8992 10.718 13.8956 10.679 13.8877 10.6374C13.8799 10.5952 13.8685 10.5505 13.8529 10.5021L13.856 10.501Z" fill="white"/>
    <path d="M13.6243 11.3122L13.4922 11.4443L13.625 11.5772L13.7571 11.4451L13.6243 11.3122Z" fill="white"/>
    <path d="M15.3752 9.99013L15.2425 9.85742L15.1113 9.98909L15.244 10.1213L15.3752 9.99013Z" fill="white"/>
    <path d="M15.6935 9.99111L15.5618 9.8584L15.4307 9.98955L15.5634 10.1223L15.6935 9.99111Z" fill="white"/>
    <path d="M15.5892 10.5018C15.5819 10.4795 15.5746 10.4586 15.5674 10.4383C15.5601 10.418 15.5528 10.3993 15.5455 10.3816C15.5382 10.3644 15.532 10.3488 15.5257 10.3358C15.5195 10.3228 15.5148 10.3119 15.5112 10.3036L15.3836 10.367C15.3873 10.3754 15.392 10.3863 15.3982 10.4004C15.4045 10.4144 15.4107 10.429 15.4175 10.4456C15.4242 10.4623 15.4305 10.4789 15.4378 10.4961C15.4445 10.5133 15.4503 10.5294 15.4555 10.5445C15.4685 10.5861 15.4794 10.6252 15.4877 10.66C15.4961 10.6954 15.5002 10.7272 15.5002 10.7553C15.5002 10.7881 15.4955 10.8146 15.4857 10.8344V10.8334C15.4732 10.8615 15.4518 10.8833 15.4216 10.8994C15.3915 10.9156 15.3576 10.927 15.3196 10.9343C15.2822 10.9416 15.2431 10.9463 15.2025 10.9478C15.1619 10.9494 15.1255 10.9499 15.0917 10.9499H15.0214C14.9819 10.9499 14.9501 10.9463 14.9252 10.9385C14.9002 10.9307 14.8804 10.9192 14.8648 10.9046C14.8492 10.8901 14.8362 10.8724 14.8268 10.8516C14.8174 10.8307 14.8075 10.8079 14.7971 10.7818C14.7482 10.6632 14.7055 10.5617 14.6701 10.4769C14.6348 10.392 14.6056 10.3212 14.5827 10.265C14.5551 10.2 14.5322 10.1448 14.5145 10.1006C14.4916 10.11 14.4708 10.1193 14.451 10.1276C14.4318 10.136 14.4094 10.1453 14.3849 10.1558L14.666 10.8323C14.6592 10.8391 14.6504 10.8458 14.6394 10.8536C14.6285 10.8609 14.6155 10.8687 14.6014 10.8765C14.5869 10.8844 14.5718 10.8922 14.5562 10.9C14.54 10.9078 14.5244 10.9145 14.5088 10.9208C14.488 10.9291 14.464 10.9354 14.437 10.94C14.4099 10.9447 14.3855 10.9468 14.3626 10.9468C14.3173 10.9468 14.2684 10.9369 14.2168 10.9171C14.1653 10.8974 14.1154 10.8672 14.0685 10.8266C14.054 10.8469 14.0409 10.8656 14.0279 10.8828C14.0154 10.9 14.0014 10.9187 13.9868 10.9395C14.0102 10.9629 14.0357 10.9838 14.0633 11.003C14.0909 11.0217 14.12 11.0379 14.1502 11.0504C14.1804 11.0634 14.2116 11.0733 14.2434 11.08C14.2757 11.0868 14.3074 11.0904 14.3397 11.0904C14.3839 11.0904 14.424 11.0873 14.4594 11.0811C14.4948 11.0748 14.5291 11.0655 14.5614 11.053H14.5603C14.5749 11.0472 14.59 11.0405 14.6061 11.0332C14.6223 11.0259 14.6384 11.0186 14.654 11.0113C14.6701 11.0041 14.6847 10.9962 14.6988 10.9879C14.7128 10.9796 14.7248 10.9718 14.7352 10.964C14.7482 10.9812 14.7638 10.9978 14.7815 11.0129C14.7992 11.028 14.8195 11.0415 14.8424 11.0535C14.8653 11.0649 14.8918 11.0743 14.921 11.0811C14.9392 11.0852 14.96 11.0873 14.9814 11.0889C14.9845 11.0889 14.9876 11.091 14.9912 11.091H15.1297C15.1427 11.091 15.1609 11.091 15.1843 11.091C15.2077 11.091 15.2322 11.0899 15.2582 11.0889C15.2842 11.0878 15.3092 11.0858 15.3342 11.0837C15.3592 11.0816 15.379 11.0774 15.3946 11.0727C15.4451 11.0592 15.4883 11.0363 15.5242 11.0051C15.5606 10.9739 15.5887 10.9364 15.61 10.8927C15.6267 10.8536 15.635 10.8079 15.635 10.7553C15.635 10.7194 15.6309 10.6803 15.6236 10.6387C15.6158 10.5966 15.6043 10.5518 15.5887 10.5034L15.5892 10.5018Z" fill="white"/>
    <path fill-rule="evenodd" clip-rule="evenodd" d="M26.2824 10.0758C26.4605 9.85494 26.4038 9.63873 26.0908 9.26771L21.1548 3.42949C21.0761 3.3354 21.0794 3.3374 20.9586 3.34741L20.4488 3.39212C20.2333 3.41481 20.258 3.4048 20.2213 3.615L20.1712 4.08745C20.1499 4.20222 20.1625 4.21957 20.2493 4.29831L25.9921 9.63073C26.0908 9.72014 26.0862 9.78888 26.0248 9.86495C25.9621 9.94035 25.896 9.95837 25.7872 9.88096L19.4105 5.32729C19.3144 5.25723 19.2957 5.24922 19.1889 5.29126L18.7352 5.43673C18.537 5.51481 18.5417 5.49012 18.5623 5.70565L18.6217 6.2128C18.6357 6.33359 18.6337 6.33092 18.7405 6.38831L25.4536 10.0531C25.8786 10.2833 26.1035 10.2947 26.2837 10.0758H26.2824Z" fill="#CFAE78"/>
    <path fill-rule="evenodd" clip-rule="evenodd" d="M26.9369 10.6098C26.5379 11.0989 26.0855 11.4072 25.3875 11.4346L17.6281 11.7595C17.5226 11.7669 17.4913 11.7515 17.4132 11.6694L17.0375 11.2871C16.894 11.1343 16.9421 11.1269 17.0689 10.9888L17.3952 10.6285C17.4639 10.5504 17.5433 10.4917 17.6554 10.4997L25.4142 11.1383C25.7752 11.169 26.4071 10.812 26.7174 10.4309C27.0284 10.0499 27.2506 9.35925 27.1485 9.01158L24.9624 1.54047C24.9317 1.4317 24.9737 1.34161 25.0371 1.25887L25.3234 0.868495C25.4342 0.715683 25.4302 0.667637 25.609 0.777742L26.0581 1.06869C26.1555 1.12874 26.1776 1.1561 26.1909 1.2602L27.4334 8.9275C27.5462 9.61616 27.3347 10.122 26.9363 10.6111L26.9369 10.6098Z" fill="#CFAE78"/>
    <path fill-rule="evenodd" clip-rule="evenodd" d="M26.6053 10.3384C26.2443 10.7735 25.8726 10.8896 25.1639 10.7067L17.7695 8.95574C17.6408 8.92638 17.6368 8.93573 17.588 8.81294L17.4065 8.36518C17.3585 8.25107 17.3465 8.12963 17.528 8.0302L17.909 7.78129C18.0338 7.69788 18.0338 7.70922 18.1753 7.76127L25.5016 10.4752C25.7905 10.584 26.1896 10.3891 26.3811 10.1556C26.5706 9.92133 26.6827 9.49226 26.5165 9.23067L22.3846 2.60036C22.3045 2.47157 22.2952 2.4729 22.3512 2.33477L22.5187 1.9117C22.5795 1.71418 22.7009 1.70284 22.8224 1.72486L23.2968 1.81294C23.4263 1.8363 23.4183 1.84164 23.4743 1.96242L26.6754 8.85365C26.9957 9.50894 26.9583 9.89798 26.6046 10.3384H26.6053Z" fill="#CFAE78"/>
    <path fill-rule="evenodd" clip-rule="evenodd" d="M30.6674 10.0768C30.8483 10.2957 31.0731 10.2843 31.4976 10.0541L38.2106 6.38928C38.3174 6.33189 38.3147 6.33456 38.3294 6.21378L38.3888 5.70663C38.4095 5.49109 38.4141 5.51578 38.2159 5.43771L37.7622 5.29224C37.6554 5.2502 37.6367 5.2582 37.5406 5.32827L31.1639 9.88194C31.0551 9.95935 30.9891 9.942 30.9263 9.86593C30.8656 9.78985 30.8609 9.72179 30.959 9.6317L36.7018 4.29929C36.7886 4.21988 36.8013 4.2032 36.7799 4.08842L36.7299 3.61597C36.6932 3.40577 36.7179 3.41578 36.5023 3.39309L35.9925 3.34839C35.8717 3.33838 35.8751 3.33637 35.7963 3.43046L30.8596 9.26802C30.5466 9.63904 30.4899 9.85592 30.6681 10.0761L30.6674 10.0768Z" fill="#CFAE78"/>
    <path fill-rule="evenodd" clip-rule="evenodd" d="M30.0137 10.6106C29.6147 10.1215 29.4038 9.61569 29.5166 8.92704L30.7591 1.25973C30.7724 1.15564 30.7944 1.12828 30.8919 1.06822L31.341 0.777275C31.5198 0.667837 31.5165 0.715883 31.6266 0.868028L31.9128 1.2584C31.9762 1.34115 32.0183 1.43123 31.9876 1.54L29.8015 9.01112C29.6994 9.35878 29.9216 10.0494 30.2326 10.4305C30.5429 10.8115 31.1748 11.1685 31.5358 11.1378L39.2945 10.4992C39.4073 10.4912 39.4861 10.5499 39.5548 10.628L39.8811 10.9883C40.0072 11.1265 40.0559 11.1331 39.9125 11.2866L39.5368 11.669C39.4587 11.7511 39.4273 11.7671 39.3219 11.7591L31.5625 11.4341C30.8645 11.4067 30.4121 11.0984 30.013 10.6093L30.0137 10.6106Z" fill="#CFAE78"/>
    <path fill-rule="evenodd" clip-rule="evenodd" d="M30.3452 10.3397C29.9922 9.8993 29.9541 9.51026 30.2744 8.85497L33.4755 1.96374C33.5315 1.84296 33.5235 1.83762 33.653 1.81426L34.1274 1.72618C34.2489 1.70349 34.3703 1.71484 34.4311 1.91302L34.5986 2.33609C34.6546 2.47423 34.6453 2.47289 34.5652 2.60168L30.4332 9.232C30.2671 9.49358 30.3792 9.92265 30.5687 10.1569C30.7602 10.3904 31.1593 10.5853 31.4482 10.4765L38.7745 7.7626C38.916 7.71121 38.9167 7.69987 39.0408 7.78261L39.4218 8.03152C39.6033 8.13095 39.5906 8.2524 39.5433 8.3665L39.3618 8.81426C39.313 8.93638 39.3084 8.9277 39.1802 8.95707L31.7859 10.7081C31.0779 10.8909 30.7055 10.7748 30.3445 10.3397H30.3452Z" fill="#CFAE78"/>
    <path d="M28.975 9.28125H27.9761L27.7485 10.2802C27.7485 10.2802 28.3831 11.0403 28.3771 11.865H28.4332V10.1968C28.3304 10.1761 28.2537 10.086 28.2537 9.97791C28.2537 9.8558 28.3538 9.75704 28.4759 9.75704C28.598 9.75704 28.6981 9.8558 28.6981 9.97791C28.6981 10.086 28.6214 10.1754 28.5186 10.1968V11.865H28.5747C28.568 11.0403 29.2033 10.2802 29.2033 10.2802L28.9757 9.28125H28.975Z" fill="#21409A"/>
    <path d="M29.0933 0.618923C29.096 0.570877 29.0767 0.523498 29.0433 0.490133L28.5942 0.0490467C28.5288 -0.0163489 28.4227 -0.0163489 28.3573 0.0490467L27.9082 0.490133C27.8735 0.524166 27.8555 0.570877 27.8582 0.618923L28.2906 8.46306C28.3039 8.69995 28.1818 8.92416 27.9763 9.04228V9.1724H28.9746V9.04228C28.769 8.92416 28.6476 8.69995 28.6603 8.46306L29.0927 0.618923H29.0933Z" fill="#21409A"/>
    <path d="M5.75356 7.27978C6.01065 7.27978 6.29897 7.26781 6.61747 7.24387C6.93597 7.21993 7.24146 7.1757 7.53291 7.11168C7.82487 7.04715 8.08872 6.96596 8.325 6.86708C8.56127 6.7682 8.72885 6.67764 8.82773 6.59542C8.92662 6.51319 9.00572 6.42107 9.06557 6.31959C9.12542 6.21811 9.16445 6.1671 9.18215 6.1671C9.20609 6.1671 9.21493 6.20145 9.20921 6.27015C9.19724 6.36591 9.15821 6.49445 9.09263 6.65631C9.00572 6.86292 8.91985 7.02737 8.8345 7.15019C8.74915 7.27302 8.64506 7.37762 8.52276 7.46453C8.34946 7.58111 8.15326 7.68884 7.93468 7.78772C7.74316 7.86578 7.53343 7.93604 7.30652 7.99849C6.95939 8.08801 6.61695 8.15358 6.27867 8.19365C5.94039 8.23425 5.61304 8.25402 5.29558 8.25402C4.92764 8.25402 4.64608 8.23893 4.45196 8.20927C4.1319 8.15827 3.90447 8.06251 3.76968 7.92199C3.64686 7.81114 3.58545 7.66178 3.58545 7.47338C3.58545 7.39844 3.59586 7.29227 3.61667 7.15488C3.63749 7.01748 3.66247 6.87957 3.69058 6.74218C3.7192 6.60478 3.74054 6.51423 3.75563 6.47051C3.77072 6.42732 3.7931 6.40546 3.82276 6.40546C3.85243 6.40546 3.87116 6.43148 3.87897 6.48404C3.88626 6.53661 3.89458 6.61936 3.90343 6.73333C3.91228 6.8473 3.99919 6.95035 4.16365 7.04299C4.48371 7.19547 5.01351 7.2751 5.75252 7.28082L5.75356 7.27978ZM5.37208 5.37241C5.37208 5.33338 5.43349 5.19911 5.55632 4.96856C5.67914 4.73801 5.75356 4.62299 5.78062 4.62299C5.83162 4.60217 5.90552 4.6386 6.00284 4.7328C6.10016 4.827 6.17406 4.91027 6.22507 4.98209C6.28492 4.8832 6.35153 4.77287 6.42491 4.65005C6.49829 4.52723 6.54669 4.46582 6.57063 4.46582C6.64557 4.46582 6.73457 4.52047 6.83761 4.62976C6.94066 4.73905 6.9953 4.84157 7.00155 4.93733C7.00155 5.0513 6.94638 5.18557 6.83553 5.34118C6.7278 5.49367 6.6487 5.57017 6.59769 5.57017C6.56491 5.57017 6.50506 5.52697 6.41815 5.44006C6.33123 5.35315 6.25525 5.28602 6.18916 5.23814C6.02782 5.56445 5.89876 5.72734 5.803 5.72734C5.77906 5.72734 5.74471 5.70809 5.69995 5.66905C5.6578 5.63314 5.59274 5.57954 5.50479 5.50772C5.41632 5.4359 5.3726 5.39114 5.3726 5.37293L5.37208 5.37241Z" fill="white"/>
    <path d="M9.92332 6.53508C9.91447 6.8973 9.98317 7.12733 10.1299 7.22621C10.2106 7.27982 10.2913 7.29803 10.3724 7.27982C10.4531 7.26212 10.515 7.21997 10.5588 7.15439C10.602 7.08882 10.6389 7.0118 10.6686 6.92332C10.6982 6.83537 10.7269 6.79113 10.7539 6.79113C10.7867 6.79113 10.8002 6.82236 10.7945 6.88533C10.7914 6.99306 10.7581 7.16793 10.6936 7.41045C10.629 7.65297 10.5416 7.85177 10.4307 8.00738C10.3199 8.16299 10.1856 8.24521 10.0269 8.25406C9.86555 8.24782 9.73961 8.15674 9.65009 7.98031C9.56942 7.80701 9.53195 7.58219 9.53768 7.30688C9.5434 7.10651 9.57151 6.78489 9.62095 6.342C9.67039 5.89912 9.73544 5.42501 9.81611 4.91915C9.86399 4.77239 9.96131 4.51374 10.1081 4.14267C10.1232 4.10676 10.1388 4.09167 10.1554 4.09791C10.1716 4.10416 10.1799 4.11873 10.1799 4.14267C10.171 4.32534 10.1336 4.67403 10.0675 5.18821C10.0019 5.70292 9.9535 6.15153 9.92384 6.53456L9.92332 6.53508ZM10.4797 3.90952C10.4797 3.87049 10.5411 3.73621 10.6639 3.50566C10.7867 3.27511 10.8611 3.1601 10.8882 3.1601C10.9392 3.13928 11.0131 3.17571 11.1104 3.26991C11.2077 3.36411 11.2816 3.44738 11.3326 3.5192C11.3925 3.42031 11.4591 3.30998 11.5325 3.18716C11.6059 3.06434 11.6543 3.00293 11.6782 3.00293C11.7531 3.00293 11.8421 3.05757 11.9452 3.16686C12.0482 3.27615 12.1029 3.37868 12.1091 3.47444C12.1091 3.58841 12.054 3.72268 11.9431 3.87829C11.8354 4.03078 11.7563 4.10728 11.7053 4.10728C11.6725 4.10728 11.6126 4.06408 11.5257 3.97717C11.4388 3.89026 11.3628 3.82313 11.2967 3.77525C11.1354 4.10156 11.0063 4.26445 10.9106 4.26445C10.8866 4.26445 10.8523 4.24519 10.8075 4.20616C10.7654 4.17025 10.7008 4.11665 10.6124 4.04483C10.5239 3.97301 10.4802 3.92825 10.4802 3.91004L10.4797 3.90952Z" fill="white"/>
</svg>
